<svg xmlns="http://www.w3.org/2000/svg" xmlns:svg="http://www.w3.org/2000/svg" id="svg8" width="32" height="32" version="1.1" viewBox="0 0 8.467 8.467"><metadata id="metadata5"/><g id="layer1" transform="matrix(0.48587407,0,0,0.48587407,-29.9988,-55.881719)"><path style="stroke-width:1.01683795" id="path3713" d="M 16.054688,0.02148438 C 7.2300813,0.02168699 0.07637476,7.1753933 0.07617187,16 0.07637455,24.824607 7.2300812,31.978313 16.054688,31.978516 24.880057,31.979391 32.034953,24.825369 32.035156,16 32.034953,7.1746311 24.880057,0.02060895 16.054688,0.02148438 Z m 0,1.13671872 C 24.252061,1.1578187 30.897744,7.8026268 30.898438,16 c 3.84e-4,8.198136 -6.645614,14.844134 -14.84375,14.84375 -0.09656,-9.736531 -0.05263,-6.497738 -0.05224,-14.695111 6.94e-4,-8.196611 -0.117876,-2.058172 0.05224,-14.9904359 z" transform="matrix(0.54455125,0,0,0.54455125,61.741924,115.01276)"/></g></svg>