<svg xmlns="http://www.w3.org/2000/svg" xmlns:svg="http://www.w3.org/2000/svg" id="svg8" width="32" height="32" version="1.1" viewBox="0 0 8.467 8.467"><metadata id="metadata5"/><g id="layer1" transform="translate(-59.680961,-124.06236)"><path style="stroke-width:.48470458" id="path3713" d="M 15.998047 8.3789062 A 7.6167874 7.6167874 0 0 0 8.3808594 15.996094 A 7.6167874 7.6167874 0 0 0 15.998047 23.611328 A 7.6167874 7.6167874 0 0 0 23.615234 15.996094 A 7.6167874 7.6167874 0 0 0 15.998047 8.3789062 z M 15.998047 10.494141 A 5.5017805 5.5017805 0 0 1 21.5 15.996094 A 5.5017805 5.5017805 0 0 1 15.998047 21.498047 A 5.5017805 5.5017805 0 0 1 10.496094 15.996094 A 5.5017805 5.5017805 0 0 1 15.998047 10.494141 z" transform="matrix(0.26458333,0,0,0.26458333,59.680961,124.06236)"/><rect id="rect3715" width=".486" height="1.263" x="63.673" y="124.06" style="stroke-width:.12824476"/><rect id="rect3715-75" width=".486" height="1.263" x="63.673" y="131.266" style="stroke-width:.12824476"/><rect style="stroke-width:.12824476" id="rect3792" width=".486" height="1.263" x="135.67" y="41.288" transform="rotate(45)"/><rect style="stroke-width:.12824476" id="rect3794" width=".486" height="1.263" x="135.67" y="48.494" transform="rotate(45)"/><rect style="stroke-width:.12824476" id="rect3796" width=".486" height="1.263" x="128.052" y="-68.15" transform="rotate(90)"/><rect style="stroke-width:.12824476" id="rect3798" width=".486" height="1.263" x="128.052" y="-60.944" transform="rotate(90)"/><rect id="rect3800" width=".486" height="1.263" x="45.28" y="-140.148" transform="rotate(135)" style="stroke-width:.12824476"/><rect id="rect3802" width=".486" height="1.263" x="45.28" y="-132.941" transform="rotate(135)" style="stroke-width:.12824476"/></g></svg>